<?xml version="1.0" encoding="UTF-8"?>
<svg version="1.1" viewBox="0 0 1776 1600" width="1280" height="1280" xmlns="http://www.w3.org/2000/svg">
<path transform="translate(0)" d="m0 0h1776v1600h-1776z" fill="#F7ECE4"/>
<path transform="translate(1091,463)" d="m0 0h17l13 4 13 9 10 9 6 10 7 18 2 8-7 16-7 9-9 11-19 19-8 7-52 52-3 5 1 9 8 34 7 31 13 57 11 48 9 42 13 47 11 50 4 21 3 18-3 7-11 12-7 8-8 7-7 8-8 5-5-2-6-8-8-13-14-25-13-23-9-15-16-28-14-24-9-16-8-13-10-18-16-27-11-19-14-23-9-8-4 1-30 30-8 7-15 14-7 7-8 7-13 13h-2l-1 3-8 7-10 10-11 9-7 7-8 7-13 11-2 3v11l7 24 14 53v12l-7 14-7 9-2 2-6-1-11-9-7-8-5-5-15-16-16-16-8-7-8-5h-12l-20 9-9-1-10-4-8-8-9-11-4-7-1-3v-7l4-8 8-14-1-8-6-9-11-12-17-17-6-5-7-8-20-20-4-8 1-4 10-5 19-5h10l20 4 40 11 15 5 10 3 1-3 8-7 8-8 7-8 10-10 7-8 8-8 7-8 10-11 9-11 10-11 7-8 13-14 14-16 8-7 11-12-5-5-9-6-30-18-19-11-17-10-21-12-20-12-23-13-13-8-84-48-19-11-9-7 2-4 13-12 8-7 12-10 5-7 8-4h14l47 9 43 9 46 11 46 10 150 34 9 1 6-1 7-6 7-8 61-61 8-7 16-12z" fill="#2B2D2F"/>
<path transform="translate(1160,395)" d="m0 0h11l14 5 8 5v2l5 2 5 4 7 8 8 11 5 10 3 12 1 13-4 14-9 16-9 10h-2l-2 4-7 8-8 16-4 5-4 8-4 1-3 6-4 1-2 5-5 6h-2l-2 4-12 16-7 7-7 8-6 6h-2l-2 4h-2l-2 4-4 2v2l-5 5-9 11-8 13-1 4-3 1-1 4v3l-4 5h-2l-2 6-1 13 2 15 5 19 2 13 4 16 5 22 13 53 5 28 2 5 4 1 2-4 6-6 7-2h11l3 3v1l-11 2-4 1-2 4-6 7-2 6 2 13 4 9 3 2h7l7-5h2l2-4 4-7 4-8v-12l6 5 2 6v7l-4 12-6 9-4 5-10 6-6 3h-2v15l7 39 4 25v13l-4 12-6 7-11 9-9 7-14 10-10 4-8-1-8-6-11-13-5-5v-2h-2v-2l-4-2v-2h-2l-4-4-8-7-9-15-6-11-8-11-8-15-6-7-4-8v-2l-2-1-7-11-12-18-8-14-13-19-6-9v-2h-2l-4-6-7-7-11-5-9 1-8 2-10 4-5 4h-2v2l-8 6-13 12-8 8-11 9-11 12-6 4-9 9-3 5v3l-4 3h-3v7l-8 5-6 1 3 23 4 23 3 23-2 13-4 9-3 5h-2l-1 3-12 9-8 1-10-3-9-7-6-4h-9l-9-3-13-9-14-9-11-6-10-6-11-4-4-3-12-4-14-10-10-10-6-8-4-11-1-5-1-19-2-5-9-10-5-9-1-5 2-3v-5l-11-13-9-13-7-8v-2h-2l-7-12-1-5 3-6h2l4 8 26 26 4 5 8 7 20 20 8 11 2 6-1 5-8 15-3 6v7l4 9 9 10 7 8 8 4 10 2 9-3 13-6h12l8 5 17 16 17 17 5 6 17 17 8 6 5-1 4-5 7-11 3-7v-12l-14-53-7-24v-11l6-7 11-9 15-14 11-9 15-15 8-7 16-16 8-7 10-10 8-7 15-14 22-22 4 1 8 7 6 9 10 17 8 14 12 20 14 24 9 16 8 13 11 20 10 17 12 21 13 22 15 27 11 19 9 13 5 2 9-6 9-10 8-7 11-12 5-7 1-6-3-16-9-45-9-37-10-36-9-42-13-57-11-48-8-36-8-33 1-7 9-10 52-52 8-7 15-15 8-10 5-7 7-16-4-14-7-16-7-9-11-9-10-6-11-3h-17l-12 5-17 13-16 15-57 57-6 7-6 3h-9l-113-26-103-23-38-9-70-14-11-2h-14l-8 4-7 9-13 11-12 11-4 3h-2l2-7 18-18 5-6h2v-2l15-10 9-3h12l35 3h15l12-2h20l5-5 6-8 9-7 4-2h19v1l-9 1-13 7-6 5-6 10v2l12 5 9 1h12l3 1 2-6 5-12 1-5 1 2 4 2 6 12 10 8 11 9 8 5 4 4 12 7 21 7 9 2 15 4 22 5 20 4 14 2 10 1h11l6-3 12-2 5-2 11-2 11-7 7-5h2v-2l9-7 10-9h2l2-4 4-4h2v-2h2v-2l8-7 12-12 11-8 7-4 6-3h2l2-4 6-9 5-5 6-10 8-8 14-11 12-8 7-2h4v-2z" fill="#FEFCF9"/>
<path transform="translate(569,533)" d="m0 0 5 1 9 7 22 12 22 13 16 9 24 14 25 14 13 8 23 13 13 8 21 12 51 30 13 8 9 6 6 5-6 7-9 10-3 3h-2l-2 4-10 10-9 11-11 11-9 11-10 11-9 11-8 8-7 8-8 8-7 8-10 10-7 8-12 12-8-1-10-4-47-13-20-4h-10l-19 5-8 1 4-3 6-2 3-3 8-1 6-3 9-1 20 4 36 8 12 2 9 2 7-1v-2h2l2-4 28-28h2v-2h2l2-4 12-12 7-10 8-10h2l2-4 9-10 14-16 4-5 3-5v-4h-9l-1-3h-3l-10-19-10-10v-2l-5-2-10-9-14-8-7-5-9-5-19-11-14-9-21-12-12-8-18-11-15-9-6-7-4-6-11-10-17-13-9-7-6-7-1-5z" fill="#FEFCF9"/>
<path transform="translate(945,621)" d="m0 0h15l14 5 9 6 6 5 10 13 5 12 1 14-2 10-8 16-9 10-8 6-14 7-4 1h-17l-11-4-9-6-8-7-8-10-5-10-2-12v-15l4-10 10-13 13-11 9-5z" fill="#FEFBF7"/>
<path transform="translate(1160,401)" d="m0 0h8l9 2 12 6 9 7 9 11 7 15 1 3 1 19-5 12-9 13-14 14-4 5-12 8-5 2 3-5-1-6-6-18-6-10-9-10-8-7-13-9-16-5-4-2-8-1 7-11 5-6 9-6 11-9 14-8z" fill="#1A1B1E"/>
<path transform="translate(951,638)" d="m0 0h9l10 4 9 8 7 11 3 8v10l-4 10-7 8-7 6-11 5-3 1h-10l-9-4-8-7-7-8-5-10v-15l3-8 9-10 9-6z" fill="#2B2D2F"/>
<path transform="translate(1159,415)" d="m0 0 11 2 4 9 9 11 6 8v6h-2l-2 7h-3l-2 10-7 8-14 2 2 2-1 3-8-10-8-8-14-10-5-4v-2l-1-3 3-9 1-5h2l-2-4 3-3 14-7h6v-2h7z" fill="#2B2D2F"/>
<path transform="translate(1050,977)" d="m0 0 4 4 6 11v2l3 1 2 5 2 1 3 8 4 6 1-4-5-9-2-5h-2l1-4 4 2 5 4 5 3v2l12 2v2l6 2 2 3 15-6 7-3 5-5h4l-1 5-11 12-7 8-8 7-7 8-8 5-5-2-6-8-8-13-14-25-8-14z" fill="#1A1B1E"/>
<path transform="translate(1107,446)" d="m0 0 20 6 18 13 11 11 7 11 8 22-1 5-2 3 1 2-11 5-1-8-7-19-5-9-8-9-10-7-8-5-11-3-17-1 3-2 6-2 4-2v-2l4-3 3-1-4-4z" fill="#FEFBF7"/>
<path transform="translate(1140,849)" d="m0 0h6l8 5 4 7v8l-7 14-4 5-9 6h-7l-5-4-4-12-1-10 4-8 7-8z" fill="#191A1D"/>
<path transform="translate(750,463)" d="m0 0h14l5 5 1 2v7l-4 11-3 6h-17l-10-2-10-5 2-5 6-9 10-7z" fill="#1A1B1E"/>
<path transform="translate(720,979)" d="m0 0 7 6 6 5 5 6 5 3 5 2 4 3v2l4 2v2l7 1h5l5 3 7 3v2l3 1v2h-2l1 6 3-1v-2l-2-2 2-2 1 2h5v-4h2v8h3l-1 5-7 9-2 2-6-1-11-9-7-8-5-5-15-16-16-16-7-6z" fill="#1B1C1F"/>
<path transform="translate(592,512)" d="m0 0h3l1 3h-3l-2 5-3 1-1 5h-2l-1 9-1 1 3 3v2l3-1 2 1v2l6 2 2 1 4 3 2 1v2h5l4 4h3v2l5 2 6 4 5 2 1 2 7 2 1 2h3v2h2l1 2 4 1v2l9 3 1 3 6 1 1 3 6 1v2l6 2 2 2 6 2 1 2 6 1 1 4 4 1 2 2 6 2v2l-6-1-15-9-26-15-16-9-19-11-24-14-20-11-12-9 2-4 13-12z" fill="#1C1E20"/>
<path transform="translate(608,822)" d="m0 0 3 1-1 2h-2l-2 4-5 3-5 5-2 3-3-1-4-6v-3h-2v2h-2l3 10 4 2v2l3 1 4 4 1 4 5 6 7 6 5 6 5 1 3 7 6 5 6 7 5 5 1 3-4-2-23-23-6-5-7-8-20-20-4-8 1-4 10-5 10-3z" fill="#1D1F21"/>
<path transform="translate(750,501)" d="m0 0h11l2 4v10l35 8 4 2-10-1-49-11-29-7v-1h7l7 1 11-4z" fill="#F7ECE4"/>
<path transform="translate(1140,849)" d="m0 0h6l2 2-7 1-1 3-5 1-1 3 2 4 4 4v8l-1 2-11 3 1 7h-2l1 4-2-1-4-12-1-10 4-8 7-8z" fill="#2B2D2F"/>
<path transform="translate(608,822)" d="m0 0 3 1-1 2h-2l-2 4-5 3-5 5-2 3-3-1-4-6v-3l-2-1 3-1v-2l10-3z" fill="#1A1B1E"/>
<path transform="translate(1136,553)" d="m0 0 1 3-20 20-8 7-10 10-3-1 3-5 3-1 2-6 3-3 1-2 7-2 4-5 2-2-1-3h6v-2h2v-2l4-1 1-3z" fill="#1D1E21"/>
<path transform="translate(650,579)" d="m0 0 5 1 7 3v2l6 1 1 3 6 1v2l6 2 2 2 6 2 1 2 6 1 1 4 4 1 2 2 6 2v2l-6-1-15-9-26-15-12-7z" fill="#1E2022"/>
<path transform="translate(1107,446)" d="m0 0 10 3 4 2-6 2-1 5-5 3 3 3-21-1 3-2 6-2 4-2v-2l4-3 3-1-4-4z" fill="#F7ECE4"/>
<path transform="translate(1e3 902)" d="m0 0h3l4 9 1 5h2v3h2v3h2l3 7 3 4v4h2l4 6v4l-3-1-13-23-10-17z" fill="#1F2023"/>
<path transform="translate(1128,415)" d="m0 0 2 1-5 5v3 3h-3v2l2 1-2 2-1 5-9 1v-5l3-2 2-7 10-8z" fill="#2A2C2E"/>
<path transform="translate(609,552)" d="m0 0 4 2 1 2h3v2l5 2 6 4 5 2 1 2 7 2 1 2h3v2h2l1 2 4 1v2l-6-1-38-22z" fill="#1D1E21"/>
<path transform="translate(1103,464)" d="m0 0 16 2 8 5 6 10-5-2-8-4v-2l-4-2-3-1-1-2-10-2z" fill="#1A1C1E"/>
<path transform="translate(653,971)" d="m0 0 12 3 5 6 2 2-1 1-7-1-6-3-4-4z" fill="#1C1D20"/>
<path transform="translate(1032,948)" d="m0 0 1 2 3 1 1 6 3 1 3 5 4 7 1 4-1 2-4-4-11-19z" fill="#1E1F22"/>
<path transform="translate(710,613)" d="m0 0 5 1 2 1v2l6 1v2l6 2 2 2 5 2 1 3 6 1 1 3-5-1-20-12-9-5z" fill="#1F2123"/>
<path transform="translate(972,701)" d="m0 0 2 1-9 6-10 5-7-1-11-6-1-2 5 2 6 2h10l12-5z" fill="#F7ECE4"/>
<path transform="translate(1155,857)" d="m0 0 3 4v8l-5 11-3-1 1-10 3-3 2-4z" fill="#2B2D2F"/>
<path transform="translate(988,872)" d="m0 0 4 5 1 4h2l4 8v2h2l2 4-1 3-7-9-7-12z" fill="#1D1F21"/>
<path transform="translate(1016,923)" d="m0 0 2 1v2l3 1 4 6v4h2l4 6v4l-3-1-12-21z" fill="#212225"/>
<path transform="translate(646,910)" d="m0 0 3 4 1 8-5 9-1-3 1-4h-2l1-5 2-2z" fill="#F7ECE4"/>
<path transform="translate(758,641)" d="m0 0 5 1 2 1v2l6 1v2l6 2 1 3-6-2-14-8z" fill="#1F2123"/>
<path transform="translate(634,569)" d="m0 0 7 1 1 2h3v2h2l1 2 4 1v2l-6-1-12-7z" fill="#1E1F22"/>
<path transform="translate(1213,452)" d="m0 0h2l1 12-2-1-2 4-2-1 1-5-1-4z" fill="#2B2D2F"/>
<path transform="translate(1157,513)" d="m0 0 4 4 7-1 1 3-11 5z" fill="#F7ECE4"/>
<path transform="translate(710,613)" d="m0 0 5 1 2 1v2l6 1v2l3 1v2l-5-2-11-6z" fill="#202224"/>
<path transform="translate(1063,625)" d="m0 0h2l-2 4-8 9h-2l2-6z" fill="#1E2022"/>
<path transform="translate(1076,612)" d="m0 0h2l-2 4-8 8h-2l2-5 4-1v-3l4-1z" fill="#1F2023"/>
<path transform="translate(992,882)" d="m0 0 4 4v2l3 1v2h2l2 4-1 3-7-9-3-5z" fill="#222426"/>
<path transform="translate(745,633)" d="m0 0 5 1 5 3 2 1v2l-6-1-6-4z" fill="#1E2022"/>
<path transform="translate(684,838)" d="m0 0 8 1 3 2h8l-1 3-8-1-10-4z" fill="#F7ECE4"/>
<path transform="translate(779,653)" d="m0 0 5 1 1 3 5 1 1 2-6-1-6-4z" fill="#1F2023"/>
<path transform="translate(762,487)" d="m0 0 3 1-2 6-14-1v-1l12-1z" fill="#2C2E30"/>
<path transform="translate(783,1021)" d="m0 0 3 4-2 4-3-1-1-4z" fill="#2C2E30"/>
<path transform="translate(650,579)" d="m0 0 5 1 7 3v3l-5-2-7-4z" fill="#1F2123"/>
<path transform="translate(1147,539)" d="m0 0h2l-2 5-5 4-1-2h2l1-6z" fill="#1D1F21"/>
<path transform="translate(1032,948)" d="m0 0 1 2 3 1 1 6-2 1-3-5z" fill="#1F2023"/>
</svg>
